<svg width="57" height="22" viewBox="0 0 57 22" fill="none" xmlns="http://www.w3.org/2000/svg">
<g clip-path="url(#clip0_208_241)">
<path d="M29.428 7.01158L32.1398 6.8363C32.2017 7.27967 32.3151 7.60963 32.5007 7.84679C32.7997 8.21799 33.2122 8.40359 33.7587 8.40359C34.1608 8.40359 34.4805 8.31079 34.697 8.11488C34.9032 7.96021 35.027 7.71274 35.027 7.45496C35.027 7.2075 34.9135 6.97034 34.7176 6.81567C34.5114 6.63007 34.0268 6.44447 33.2637 6.27949C32.0161 6.00109 31.119 5.62989 30.5932 5.15558C30.0673 4.7122 29.7683 4.0626 29.7889 3.37175C29.7889 2.89744 29.9332 2.42313 30.2013 2.0313C30.5107 1.58792 30.9334 1.23734 31.4387 1.04143C31.9852 0.804276 32.7482 0.680542 33.7071 0.680542C34.8826 0.680542 35.7797 0.897076 36.3983 1.34046C37.017 1.77352 37.3882 2.47468 37.5016 3.43362L34.8207 3.58828C34.7486 3.17584 34.6042 2.87682 34.367 2.6809C34.1299 2.48499 33.8205 2.39219 33.4184 2.39219C33.0885 2.39219 32.841 2.46437 32.676 2.59841C32.5213 2.72215 32.4182 2.90775 32.4285 3.11397C32.4285 3.26864 32.511 3.413 32.6348 3.5058C32.7688 3.62953 33.0885 3.74295 33.5937 3.84606C34.8414 4.11415 35.7281 4.38224 36.2746 4.66064C36.8211 4.93904 37.2129 5.27931 37.4501 5.68145C37.6975 6.09389 37.8213 6.56821 37.811 7.05283C37.811 7.63025 37.646 8.20768 37.316 8.6923C36.9758 9.19755 36.5014 9.58937 35.9446 9.82653C35.3569 10.0843 34.6145 10.2184 33.7277 10.2184C32.1605 10.2184 31.0778 9.91933 30.4694 9.31097C29.8611 8.70261 29.5002 7.93959 29.428 7.01158ZM0.649602 10.0637V0.84552H5.40304C6.27949 0.84552 6.96002 0.917698 7.42402 1.07237C7.87771 1.21672 8.27985 1.51574 8.54794 1.91788C8.84696 2.36126 8.99132 2.87682 8.98101 3.41299C9.01194 4.32038 8.54794 5.18651 7.75398 5.6402C7.44464 5.81549 7.10438 5.93923 6.7538 6.00109C7.01158 6.07327 7.26936 6.197 7.4962 6.34136C7.67149 6.48572 7.81585 6.65069 7.94989 6.82598C8.10456 7.00127 8.2386 7.19719 8.35203 7.40341L9.73372 10.074H6.49602L4.96997 7.23843C4.77406 6.87754 4.60908 6.64038 4.45441 6.52696C4.24819 6.3826 4.00072 6.31043 3.75326 6.31043H3.50579V10.0534H0.649602V10.0637ZM3.50579 4.57815H4.71219C4.96997 4.55753 5.21744 4.51629 5.46491 4.45442C5.65051 4.42349 5.81548 4.32038 5.92891 4.16571C6.20731 3.79451 6.16606 3.26864 5.8258 2.94899C5.6402 2.79433 5.27931 2.71184 4.76375 2.71184H3.50579V4.57815ZM0 17.962L2.71183 17.7867C2.7737 18.2301 2.88712 18.5601 3.07272 18.7972C3.36143 19.1684 3.78419 19.3643 4.33068 19.3643C4.73281 19.3643 5.05246 19.2715 5.26899 19.0756C5.47522 18.9106 5.59895 18.6735 5.59895 18.4157C5.59895 18.1682 5.48553 17.9311 5.28962 17.7764C5.08339 17.5908 4.59877 17.4052 3.82543 17.2402C2.57779 16.9618 1.68072 16.5906 1.15485 16.1163C0.62898 15.6729 0.329957 15.0233 0.350579 14.3325C0.350579 13.8582 0.494935 13.3839 0.763025 12.992C1.07236 12.5487 1.49512 12.1981 2.00036 12.0022C2.54685 11.765 3.30988 11.6413 4.26881 11.6413C5.44428 11.6413 6.34135 11.8578 6.96002 12.3012C7.57869 12.7446 7.93958 13.4354 8.053 14.3944L5.37211 14.549C5.29993 14.1366 5.15557 13.8376 4.91842 13.6417C4.69157 13.4457 4.37192 13.3529 3.96979 13.3632C3.63983 13.3632 3.39237 13.4354 3.22739 13.5798C3.06241 13.7035 2.96961 13.8891 2.97992 14.0953C2.97992 14.25 3.06241 14.3944 3.18614 14.4872C3.32019 14.6109 3.63983 14.7243 4.14508 14.8274C5.39273 15.0955 6.27949 15.3636 6.82598 15.642C7.37247 15.9204 7.76429 16.2607 8.00145 16.6628C8.24891 17.0753 8.37265 17.5496 8.37265 18.0239C8.37265 18.6013 8.19736 19.1684 7.87771 19.653C7.53745 20.1583 7.06313 20.5501 6.50633 20.7873C5.9186 21.0451 5.17619 21.1791 4.28944 21.1791C2.72214 21.1791 1.63947 20.8801 1.03111 20.2717C0.422757 19.653 0.0824891 18.89 0 17.962H0Z" fill="black"/>
<path d="M13.7138 17.2402L16.2091 17.993C16.0751 18.6219 15.7967 19.22 15.4151 19.7459C15.0646 20.2099 14.6006 20.5707 14.0747 20.8079C13.5385 21.0451 12.858 21.1688 12.0331 21.1688C11.0329 21.1688 10.208 21.0244 9.57903 20.7357C8.93974 20.447 8.39325 19.9315 7.92925 19.1994C7.46525 18.4673 7.2384 17.529 7.2384 16.3844C7.2384 14.8584 7.64054 13.6829 8.45512 12.8683C9.2697 12.0537 10.4142 11.6413 11.899 11.6413C13.0642 11.6413 13.9716 11.8785 14.6418 12.3425C15.3017 12.8168 15.7967 13.5385 16.1266 14.5078L13.6107 15.0646C13.5488 14.8481 13.456 14.6315 13.3323 14.4459C13.1776 14.2294 12.9817 14.0644 12.7446 13.9407C12.5074 13.8169 12.2393 13.7654 11.9712 13.7654C11.3216 13.7654 10.8267 14.0232 10.4864 14.549C10.2286 14.9306 10.0946 15.5389 10.0946 16.3638C10.0946 17.3846 10.2493 18.0858 10.5586 18.4673C10.8679 18.8488 11.301 19.0344 11.8681 19.0344C12.4146 19.0344 12.827 18.8797 13.1054 18.5807C13.3838 18.2611 13.5901 17.8177 13.7138 17.2402ZM19.5396 11.796H22.3855V15.0234H25.4994V11.796H28.3659V21.0141H25.4994V17.2815H22.3855V21.0141H19.5396V11.796Z" fill="black"/>
<path d="M27.9741 16.405C27.9741 14.8996 28.3969 13.7241 29.2321 12.8889C30.0673 12.0537 31.2428 11.631 32.7379 11.631C34.2742 11.631 35.4497 12.0434 36.2849 12.8683C37.1201 13.6932 37.5326 14.8481 37.5326 16.3329C37.5326 17.4155 37.347 18.292 36.9861 18.9828C36.6355 19.6634 36.089 20.2202 35.4188 20.5914C34.7279 20.9729 33.8721 21.1688 32.8513 21.1688C31.8099 21.1688 30.954 21.0038 30.2735 20.6739C29.5724 20.3233 28.9949 19.7768 28.6134 19.1066C28.1907 18.3848 27.9741 17.4877 27.9741 16.405ZM30.82 16.4154C30.82 17.3434 30.9953 18.0136 31.3356 18.426C31.6758 18.8282 32.1501 19.0344 32.7482 19.0344C33.3565 19.0344 33.8309 18.8385 34.1711 18.4363C34.5114 18.0342 34.6764 17.3227 34.6764 16.2916C34.6764 15.4255 34.5011 14.7862 34.1505 14.3944C33.7999 13.9922 33.3256 13.7963 32.7276 13.7963C32.2017 13.7757 31.6964 14.0025 31.3459 14.4047C30.9953 14.8068 30.82 15.477 30.82 16.4154ZM40.4506 16.405C40.4506 14.8996 40.8734 13.7241 41.7086 12.8889C42.5438 12.0537 43.7192 11.631 45.2144 11.631C46.7507 11.631 47.9365 12.0434 48.7614 12.8683C49.5863 13.6932 50.009 14.8481 50.009 16.3329C50.009 17.4155 49.8234 18.292 49.4625 18.9828C49.112 19.6634 48.5655 20.2202 47.8953 20.5914C47.2044 20.9729 46.3486 21.1688 45.3278 21.1688C44.2864 21.1688 43.4305 21.0038 42.75 20.6739C42.0488 20.3233 41.4714 19.7768 41.0899 19.1066C40.6671 18.3848 40.4506 17.4877 40.4506 16.405ZM43.2965 16.4154C43.2965 17.3434 43.4718 18.0136 43.812 18.426C44.1523 18.8282 44.6266 19.0344 45.2247 19.0344C45.833 19.0344 46.3073 18.8385 46.6476 18.4363C46.9879 18.0342 47.1528 17.3227 47.1528 16.2916C47.1528 15.4255 46.9776 14.7862 46.627 14.3944C46.2764 13.9922 45.8021 13.7963 45.204 13.7963C44.6782 13.7757 44.1626 14.0025 43.8223 14.4047C43.4718 14.8068 43.2965 15.477 43.2965 16.4154Z" fill="black"/>
<path d="M49.71 11.796H52.5559V18.7457H57V21.0141H49.6997V11.796H49.71Z" fill="black"/>
<path d="M46.5732 11.264C49.4384 9.10482 50.322 5.4447 48.5467 3.08888C46.7714 0.733059 43.0095 0.573627 40.1443 2.73278C37.2791 4.89193 36.3956 8.55204 38.1709 10.9079C39.9462 13.2637 43.7081 13.4231 46.5732 11.264Z" fill="white"/>
<path d="M46.5732 11.264C49.4384 9.10482 50.322 5.4447 48.5467 3.08888C46.7714 0.733059 43.0095 0.573627 40.1443 2.73278C37.2791 4.89193 36.3956 8.55204 38.1709 10.9079C39.9462 13.2637 43.7081 13.4231 46.5732 11.264Z" fill="white"/>
<path d="M46.5732 11.264C49.4384 9.10482 50.322 5.4447 48.5467 3.08888C46.7714 0.733059 43.0095 0.573627 40.1443 2.73278C37.2791 4.89193 36.3956 8.55204 38.1709 10.9079C39.9462 13.2637 43.7081 13.4231 46.5732 11.264Z" fill="white" stroke="black" stroke-width="4" stroke-miterlimit="10"/>
<path d="M46.5732 11.264C49.4384 9.10482 50.322 5.4447 48.5467 3.08888C46.7714 0.733059 43.0095 0.573627 40.1443 2.73278C37.2791 4.89193 36.3956 8.55204 38.1709 10.9079C39.9462 13.2637 43.7081 13.4231 46.5732 11.264Z" stroke="black" stroke-width="4" stroke-miterlimit="10"/>
<path d="M46.5732 11.264C49.4384 9.10482 50.322 5.4447 48.5467 3.08888C46.7714 0.733059 43.0095 0.573627 40.1443 2.73278C37.2791 4.89193 36.3956 8.55204 38.1709 10.9079C39.9462 13.2637 43.7081 13.4231 46.5732 11.264Z" fill="white" stroke="black" stroke-width="4" stroke-miterlimit="10"/>
<path d="M46.5732 11.264C49.4384 9.10482 50.322 5.4447 48.5467 3.08888C46.7714 0.733059 43.0095 0.573627 40.1443 2.73278C37.2791 4.89193 36.3956 8.55204 38.1709 10.9079C39.9462 13.2637 43.7081 13.4231 46.5732 11.264Z" stroke="black" stroke-width="4" stroke-miterlimit="10"/>
<path d="M40.4609 6.32074L41.492 5.59896L42.7603 7.40341C42.9768 7.69212 43.1418 8.00145 43.2655 8.34172C43.3377 8.5995 43.3171 8.8779 43.214 9.12537C43.0799 9.4347 42.8634 9.69248 42.5747 9.87808C42.2344 10.1152 41.9457 10.2493 41.6982 10.2905C41.4611 10.3318 41.2136 10.2905 40.9868 10.1874C40.7393 10.0637 40.5228 9.88839 40.3578 9.66155L41.2445 8.83666C41.3167 8.95008 41.4095 9.05319 41.5126 9.13568C41.5848 9.18723 41.6673 9.21817 41.7601 9.21817C41.8323 9.21817 41.9045 9.18723 41.956 9.14599C42.0591 9.08412 42.1313 8.96039 42.121 8.83666C42.0901 8.66137 42.0179 8.48608 41.9045 8.35203L40.4609 6.32074ZM43.5542 7.46527L44.4926 6.72287C44.5957 6.8466 44.7297 6.93941 44.8741 6.99096C45.0803 7.05283 45.2968 7.01158 45.4721 6.87754C45.5958 6.79505 45.699 6.68163 45.7402 6.53727C45.8021 6.35167 45.699 6.14545 45.5134 6.08358C45.4824 6.07327 45.4515 6.06296 45.4206 6.06296C45.2968 6.05265 45.0803 6.1042 44.7606 6.23825C44.2348 6.45478 43.8223 6.53727 43.513 6.50634C43.214 6.4754 42.9356 6.32074 42.7706 6.06296C42.6469 5.88767 42.585 5.68145 42.5747 5.47522C42.5747 5.23807 42.6366 5.00091 42.7706 4.805C42.9665 4.5266 43.2037 4.28944 43.4924 4.10384C43.9254 3.80482 44.307 3.66046 44.6369 3.66046C44.9669 3.66046 45.2762 3.81513 45.5649 4.13477L44.6369 4.86687C44.4513 4.62971 44.1007 4.57815 43.8636 4.76375L43.8326 4.79469C43.7295 4.85655 43.6574 4.94935 43.6161 5.06278C43.5852 5.14527 43.6058 5.23807 43.6574 5.31024C43.6986 5.3618 43.7605 5.40304 43.8326 5.40304C43.9151 5.41336 44.0595 5.37211 44.2657 5.27931C44.7813 5.06278 45.1731 4.93904 45.4412 4.8978C45.668 4.85655 45.9052 4.87718 46.1217 4.96998C46.3176 5.05247 46.4826 5.19682 46.596 5.37211C46.7404 5.57833 46.8229 5.8258 46.8332 6.08358C46.8435 6.35167 46.7713 6.60945 46.627 6.83629C46.4414 7.11469 46.2042 7.35185 45.9258 7.53745C45.3587 7.92928 44.8947 8.09425 44.5235 8.03239C44.1214 7.97052 43.7914 7.7643 43.5542 7.46527Z" fill="black"/>
</g>
<defs>
<clipPath id="clip0_208_241">
<rect width="57" height="21.1688" fill="white"/>
</clipPath>
</defs>
</svg>
